<svg width="71" height="40" viewBox="0 0 71 40" fill="none" xmlns="http://www.w3.org/2000/svg">
<path d="M69.2687 35.9231L42.2959 35.9674C42.1002 35.9674 42.0111 35.6166 42.1568 35.4294L43.9478 33.1412C44.1848 32.8347 44.4913 32.6678 44.8086 32.6678L62.989 32.6372C64.1867 32.6372 64.7236 30.4511 63.7998 29.3411L55.1052 18.8807C54.8335 18.5538 54.5031 18.3903 54.1727 18.3903C53.8423 18.3903 53.4815 18.5674 53.2054 18.9215L42.4437 32.6713L39.8614 35.9708L37.5052 38.9468C37.34 39.1545 37.1269 39.2703 36.9074 39.2703H35.5489H34.1621C33.9404 39.2703 33.7273 39.1511 33.56 38.94L31.2363 35.9708L28.6541 32.6713L17.8923 18.9215C17.6163 18.5674 17.2706 18.3903 16.925 18.3903C16.5794 18.3903 16.2642 18.5538 15.9925 18.8807L7.29794 29.3411C6.37414 30.4511 6.9132 32.6372 8.10871 32.6372L26.2891 32.6678C26.6065 32.6678 26.9108 32.8381 27.1499 33.1412L28.941 35.4294C29.0866 35.6166 28.9975 35.9674 28.8019 35.9674L1.82903 35.9231C0.631354 35.9231 0.0944631 33.737 1.01826 32.627L14.271 16.6844L15.2318 15.5266L16.036 14.5596C16.5903 13.8922 17.3967 13.9092 17.9358 14.6005L18.7205 15.6016L23.2982 21.4481C23.4264 21.6149 23.6199 21.6183 23.7546 21.4583L28.0063 16.3575C28.1737 16.1566 28.428 16.2621 28.4975 16.5618L28.9627 18.5878C29.004 18.7649 28.9627 18.959 28.8671 19.0781L25.3588 23.2834C25.1914 23.4843 25.1871 23.8555 25.3501 24.0666L32.0906 32.6781L34.6729 35.9776C35.175 36.6212 35.9271 36.6212 36.4292 35.9776L39.0115 32.6781L45.752 24.0666C45.915 23.8589 45.9107 23.4843 45.7433 23.2834L42.235 19.0781C42.1372 18.959 42.0981 18.7649 42.1394 18.5878L42.6045 16.5618C42.6719 16.2621 42.9262 16.1566 43.0958 16.3575L47.3474 21.4583C47.48 21.6183 47.6735 21.6149 47.8039 21.4481L52.3816 15.6016L53.1663 14.6005C53.7054 13.9092 54.5118 13.8922 55.0661 14.5596L55.8703 15.5266L56.8311 16.6844L70.0838 32.627C71.0076 33.737 70.4686 35.9231 69.273 35.9231H69.2687Z" fill="white"/>
<path d="M44.4295 3.49612C42.7218 1.58895 39.6405 0.318359 36.1244 0.318359C32.6083 0.318359 29.5234 1.5915 27.8158 3.49866C26.7273 4.71324 26.2717 6.15189 26.5151 7.56508C26.8107 9.27872 27.8993 10.8243 28.6714 12.4463C29.5026 14.1981 30.3338 15.95 31.165 17.6993C32.184 19.8483 33.2065 21.9949 34.2255 24.1439C34.2916 24.2865 34.3576 24.4291 34.4272 24.5691L36.1244 28.1441L37.8216 24.5717C38.7015 22.7154 39.5848 20.8567 40.4647 19.0004C40.4647 18.5548 40.976 17.9259 41.1777 17.4981C41.4246 16.9736 41.675 16.4516 41.9219 15.9271C42.4193 14.8805 42.9166 13.834 43.4139 12.785C43.9113 11.7359 44.3529 10.7938 44.8329 9.79816C45.3059 8.81275 45.8276 7.81461 45.8658 6.76554C45.9075 5.61972 45.2989 4.46371 44.4295 3.49357V3.49612ZM36.1209 20.9967C35.314 19.2958 34.5072 17.5974 33.7003 15.8965C32.6639 13.7093 31.5023 11.5475 30.5077 9.35256C29.8956 8.00049 29.2383 6.39633 30.1842 5.04171C31.2067 3.5776 33.3595 2.55399 35.7488 2.45978C35.874 2.45469 35.9992 2.45214 36.1209 2.45214C38.3467 2.45214 40.4612 3.23894 41.6646 4.51463C43.5044 6.46508 42.1689 8.60141 41.0977 10.5391C40.6456 11.359 40.2908 12.2019 39.8978 13.037L36.1209 20.9967Z" fill="white"/>
<path d="M36.2508 9.60879C38.5704 9.60879 40.4508 8.35519 40.4508 6.80879C40.4508 5.26239 38.5704 4.00879 36.2508 4.00879C33.9312 4.00879 32.0508 5.26239 32.0508 6.80879C32.0508 8.35519 33.9312 9.60879 36.2508 9.60879Z" fill="white"/>
</svg>
